<?xml version="1.0" encoding="UTF-8" standalone="no"?>
<!DOCTYPE svg PUBLIC "-//W3C//DTD SVG 1.1//EN" "http://www.w3.org/Graphics/SVG/1.1/DTD/svg11.dtd">
<svg width="100%" height="100%" viewBox="0 0 22 22" version="1.1" xmlns="http://www.w3.org/2000/svg" xmlns:xlink="http://www.w3.org/1999/xlink" xml:space="preserve" xmlns:serif="http://www.serif.com/" style="fill-rule:evenodd;clip-rule:evenodd;stroke-linecap:round;stroke-linejoin:round;stroke-miterlimit:1.5;">
    <g transform="matrix(5.65424,0,0,5.65424,-42.6557,-56.9344)">
        <path d="M9.021,11.091C10.049,11.006 10.195,12.029 9.174,12.206" style="fill:rgb(94,93,168);fill-opacity:0;stroke:rgb(94,93,168);stroke-width:0.01px;"/>
    </g>
    <g transform="matrix(5.65424,0,0,5.65424,-42.6557,-56.9344)">
        <path d="M9.658,12.516L9.264,13.306" style="fill:none;stroke:rgb(94,93,168);stroke-width:0.01px;"/>
    </g>
    <g transform="matrix(5.65424,0,0,5.65424,-42.6557,-56.9344)">
        <path d="M9.87,12.65L9.554,13.306" style="fill:none;stroke:rgb(94,93,168);stroke-width:0.01px;"/>
    </g>
    <g transform="matrix(5.65424,0,0,5.65424,-42.6557,-56.9344)">
        <path d="M9.87,12.65L9.964,12.65" style="fill:none;stroke:rgb(94,93,168);stroke-width:0.01px;"/>
    </g>
    <g transform="matrix(5.65424,0,0,5.65424,-42.6557,-56.9344)">
        <path d="M9.964,12.65L10.282,13.289" style="fill:none;stroke:rgb(94,93,168);stroke-width:0.01px;"/>
    </g>
    <g transform="matrix(5.65424,0,0,5.65424,-42.6557,-56.9344)">
        <path d="M10.168,12.516L10.57,13.289" style="fill:none;stroke:rgb(94,93,168);stroke-width:0.01px;"/>
    </g>
    <g transform="matrix(5.65424,0,0,5.65424,-42.6557,-56.9344)">
        <path d="M9.264,13.306C9.168,13.529 9.615,13.53 9.554,13.306" style="fill:rgb(94,93,168);fill-opacity:0;stroke:rgb(94,93,168);stroke-width:0.01px;"/>
    </g>
    <g transform="matrix(5.65424,0,0,5.65424,-42.6557,-56.9344)">
        <path d="M10.282,13.289C10.266,13.584 10.674,13.453 10.57,13.289" style="fill:rgb(94,93,168);fill-opacity:0;stroke:rgb(94,93,168);stroke-width:0.01px;"/>
    </g>
    <g transform="matrix(5.65424,0,0,5.65424,-42.6557,-56.9344)">
        <path d="M8.204,11.35L9.362,11.35" style="fill:none;stroke:rgb(94,93,168);stroke-width:0.01px;"/>
    </g>
    <g transform="matrix(5.65424,0,0,5.65424,-42.6557,-56.9344)">
        <path d="M8.915,11.933L9.362,11.933" style="fill:none;stroke:rgb(94,93,168);stroke-width:0.01px;"/>
    </g>
    <g transform="matrix(5.65424,0,0,5.65424,-42.6557,-56.9344)">
        <path d="M9.362,11.933C9.571,11.915 9.615,11.742 9.618,11.646C9.621,11.547 9.543,11.35 9.362,11.35" style="fill:rgb(94,93,168);fill-opacity:0;stroke:rgb(94,93,168);stroke-width:0.01px;"/>
    </g>
    <g transform="matrix(5.65424,0,0,5.65424,-42.6557,-56.9344)">
        <ellipse cx="8.423" cy="10.83" rx="0.36" ry="0.361" style="fill:rgb(94,93,168);stroke:rgb(94,93,168);stroke-width:0.01px;"/>
    </g>
    <g transform="matrix(5.65424,0,0,5.65424,-42.6557,-56.9344)">
        <path d="M7.934,12.567L7.934,13.168" style="fill:none;stroke:rgb(94,93,168);stroke-width:0.01px;"/>
    </g>
    <g transform="matrix(5.65424,0,0,5.65424,-42.6557,-56.9344)">
        <path d="M7.934,13.168C7.935,13.709 8.919,13.668 8.915,13.168" style="fill:rgb(94,93,168);fill-opacity:0;stroke:rgb(94,93,168);stroke-width:0.01px;"/>
    </g>
    <g transform="matrix(5.65424,0,0,5.65424,-42.6557,-56.9344)">
        <path d="M8.915,13.168L8.915,11.933" style="fill:none;stroke:rgb(94,93,168);stroke-width:0.01px;"/>
    </g>
    <g transform="matrix(5.65424,0,0,5.65424,-42.6557,-56.9344)">
        <path d="M7.934,12.567C7.702,12.546 7.648,11.717 7.979,11.474" style="fill:rgb(94,93,168);fill-opacity:0;stroke:rgb(94,93,168);stroke-width:0.01px;"/>
    </g>
    <g transform="matrix(5.65424,0,0,5.65424,-42.6557,-56.9344)">
        <path d="M7.979,11.474C8.04,11.417 8.113,11.376 8.198,11.35" style="fill:rgb(94,93,168);fill-opacity:0;stroke:rgb(94,93,168);stroke-width:0.01px;"/>
    </g>
    <g transform="matrix(5.65424,0,0,5.65424,-42.6557,-56.9344)">
        <path d="M9.021,10.646C9.681,10.54 10.776,10.574 11,10.67" style="fill:rgb(94,93,168);fill-opacity:0;stroke:rgb(94,93,168);stroke-width:0.01px;"/>
    </g>
    <g transform="matrix(5.65424,0,0,5.65424,-42.6557,-56.9344)">
        <path d="M9.021,10.646L9.021,11.091" style="fill:none;stroke:rgb(94,93,168);stroke-width:0.01px;"/>
    </g>
    <g transform="matrix(5.65424,0,0,5.65424,-42.6557,-56.9344)">
        <path d="M9.174,12.516L9.174,12.206" style="fill:none;stroke:rgb(94,93,168);stroke-width:0.01px;"/>
    </g>
    <g transform="matrix(5.65424,0,0,5.65424,-42.6557,-56.9344)">
        <path d="M9.174,12.516L10.922,12.511" style="fill:none;stroke:rgb(94,93,168);stroke-width:0.01px;"/>
    </g>
    <g transform="matrix(5.65424,0,0,5.65424,-42.6557,-56.9344)">
        <path d="M10.922,12.511C11.249,12.457 11.231,11.975 11.233,11.678C11.236,11.297 11.235,10.766 11,10.67" style="fill:rgb(94,93,168);fill-opacity:0;stroke:rgb(94,93,168);stroke-width:0.01px;"/>
    </g>
    <g transform="matrix(5.65424,0,0,5.65424,-42.6557,-56.9344)">
        <path d="M8.198,11.35L9.362,11.35C9.508,11.359 9.584,11.476 9.608,11.585C9.639,11.732 9.563,11.91 9.362,11.933L8.915,11.933L8.915,13.202C8.851,13.662 8.026,13.688 7.934,13.223L7.936,12.581C7.681,12.487 7.685,11.738 7.953,11.497C8.026,11.432 8.1,11.372 8.198,11.35Z" style="fill:rgb(94,93,168);stroke:rgb(94,93,168);stroke-opacity:0;stroke-width:0.01px;"/>
    </g>
    <g transform="matrix(7.40436,0,0,8.48162,-61.4771,-89.7393)">
        <path d="M10.814,10.951C10.992,10.976 11.011,11.019 11.066,11.125C11.141,11.272 11.131,11.9 11.082,12.025C11.025,12.168 10.949,12.22 10.816,12.206C10.583,12.207 10.351,12.209 10.125,12.206L9.547,12.208L9.549,12.005C9.677,11.982 9.794,11.944 9.894,11.889C10.016,11.81 10.059,11.73 10.068,11.678C10.092,11.618 10.08,11.534 10.045,11.474C10.033,11.454 10.015,11.433 9.991,11.41C9.97,11.39 9.944,11.37 9.912,11.348C9.859,11.316 9.802,11.295 9.743,11.281C9.645,11.255 9.538,11.254 9.431,11.258L9.431,10.965C9.66,10.937 9.876,10.925 10.115,10.922L10.283,10.922C10.46,10.927 10.637,10.937 10.814,10.951Z" style="fill:rgb(94,93,168);stroke:rgb(94,93,168);stroke-opacity:0;stroke-width:0.01px;"/>
    </g>
    <g transform="matrix(5.08125,2.48017,-4.41268,9.0405,20.5484,-129.92)">
        <path d="M10.038,13.084L10.039,13.641C10.077,13.673 10.085,13.692 10.05,13.729C9.956,13.782 9.835,13.797 9.785,13.737L9.775,13.628L9.775,13.084L10.038,13.084Z" style="fill:rgb(94,93,168);stroke:rgb(94,93,168);stroke-opacity:0;stroke-width:0.01px;"/>
    </g>
    <g transform="matrix(7.03509,-3.58947,9.70183,19.0149,-182.601,-193.288)">
        <path d="M10.349,12.806L10.352,13.085C10.344,13.112 10.227,13.115 10.166,13.089C10.132,13.077 10.158,13.05 10.171,13.042L10.171,12.806L10.349,12.806Z" style="fill:rgb(94,93,168);"/>
    </g>
    <g transform="matrix(5.65424,0,0,5.65424,-42.706,-56.8397)">
        <rect x="9.866" y="12.534" width="0.145" height="0.099" style="fill:rgb(94,93,168);stroke:rgb(94,93,168);stroke-opacity:0;stroke-width:0.01px;"/>
    </g>
</svg>
