<?xml version="1.0" encoding="UTF-8" standalone="no"?>
<!DOCTYPE svg PUBLIC "-//W3C//DTD SVG 1.1//EN" "http://www.w3.org/Graphics/SVG/1.1/DTD/svg11.dtd">
<svg width="100%" height="100%" viewBox="0 0 22 22" version="1.1" xmlns="http://www.w3.org/2000/svg" xmlns:xlink="http://www.w3.org/1999/xlink" xml:space="preserve" xmlns:serif="http://www.serif.com/" style="fill-rule:evenodd;clip-rule:evenodd;stroke-linecap:round;stroke-linejoin:round;stroke-miterlimit:1.5;">
    <rect x="1.928" y="3.364" width="17.237" height="15.695" style="fill:rgb(94,93,168);"/>
    <g transform="matrix(5.66677,0,0,5.18731,-53.5806,-45.8905)">
        <path d="M9.795,9.489L11.187,9.495L12.837,9.489" style="fill:rgb(94,93,168);fill-opacity:0;stroke:rgb(94,93,168);stroke-width:0.15px;"/>
    </g>
    <g transform="matrix(5.66677,0,0,5.18731,-53.5806,-45.8905)">
        <path d="M9.795,9.489L9.795,12.521" style="fill:none;stroke:rgb(94,93,168);stroke-width:0.15px;"/>
    </g>
    <g transform="matrix(5.66677,0,0,5.18731,-53.5806,-45.8905)">
        <path d="M9.795,12.521L12.837,12.521" style="fill:none;stroke:rgb(94,93,168);stroke-width:0.15px;"/>
    </g>
    <g transform="matrix(5.66677,0,0,5.18731,-53.5806,-45.8905)">
        <path d="M12.837,12.521L12.837,9.495" style="fill:none;stroke:rgb(94,93,168);stroke-width:0.15px;"/>
    </g>
    <g transform="matrix(5.66677,0,0,5.18731,-53.5806,-45.8905)">
        <path d="M12.837,12.521L12.837,9.495" style="fill:none;stroke:rgb(94,93,168);stroke-width:0.15px;"/>
    </g>
    <g transform="matrix(5.66677,0,0,5.18731,-53.5806,-45.8905)">
        <path d="M10.826,9.489C11.044,8.912 11.619,8.911 11.794,9.489" style="fill:rgb(94,93,168);fill-opacity:0;stroke:rgb(94,93,168);stroke-width:0.15px;"/>
    </g>
    <g>
        <g transform="matrix(5.66677,0,0,5.18731,-53.5806,-45.8905)">
            <path d="M10.425,11.56L11.544,10.442" style="fill:none;stroke:white;stroke-width:0.15px;"/>
        </g>
        <g transform="matrix(5.91148,0.223997,0.244702,5.4113,-58.9605,-50.8152)">
            <path d="M11.544,10.442L11.866,10.763" style="fill:none;stroke:white;stroke-width:0.14px;"/>
        </g>
        <g transform="matrix(5.66677,0,0,5.18731,-53.5806,-45.8905)">
            <path d="M11.719,10.271L12.064,10.616" style="fill:none;stroke:white;stroke-width:0.15px;"/>
        </g>
        <g transform="matrix(5.66677,0,0,5.18731,-53.5806,-45.8905)">
            <path d="M12.064,10.616L12.305,10.375" style="fill:none;stroke:white;stroke-width:0.15px;"/>
        </g>
        <g transform="matrix(5.66677,0,0,5.18731,-53.5806,-45.8905)">
            <path d="M11.719,10.271L11.971,10.026" style="fill:none;stroke:white;stroke-width:0.15px;"/>
        </g>
        <g transform="matrix(5.66677,0,0,5.18731,-53.5806,-45.8905)">
            <path d="M11.971,10.026L12.305,10.36" style="fill:none;stroke:white;stroke-width:0.15px;"/>
        </g>
        <g transform="matrix(5.66677,0,0,5.18731,-53.5806,-45.8905)">
            <path d="M10.425,11.56L10.425,11.911" style="fill:none;stroke:white;stroke-width:0.15px;"/>
        </g>
        <g transform="matrix(5.66677,0,0,5.18731,-53.5806,-45.8905)">
            <path d="M10.425,11.56L10.776,11.911" style="fill:none;stroke:white;stroke-width:0.15px;"/>
        </g>
        <g transform="matrix(5.66677,0,0,5.18731,-53.5806,-45.8905)">
            <path d="M10.776,11.911L10.425,11.911" style="fill:none;stroke:white;stroke-width:0.15px;"/>
        </g>
        <g transform="matrix(5.66677,0,0,5.18731,-53.5806,-45.8905)">
            <path d="M10.776,11.911L11.894,10.794" style="fill:none;stroke:white;stroke-width:0.15px;"/>
        </g>
        <g transform="matrix(0.710589,-0.703508,0.84313,0.851617,-2.66103,11.1751)">
            <rect x="14.036" y="7.203" width="1.256" height="1.648" style="fill:white;stroke:white;stroke-width:0.91px;"/>
        </g>
    </g>
    <g transform="matrix(1.2,0,0,1.53711,-1.84698,-1.15831)">
        <path d="M11.975,2.077L12.271,2.757L8.399,2.724L8.854,2.035L10.328,1.459L11.975,2.077Z" style="fill:rgb(94,93,168);stroke:rgb(94,93,168);stroke-opacity:0;stroke-width:0.6px;"/>
    </g>
    <g transform="matrix(1.47588,0,0,1.47588,1.68574,0.260724)">
        <circle cx="6.009" cy="1.487" r="0.595" style="fill:white;stroke:rgb(94,93,168);stroke-opacity:0;stroke-width:0.56px;"/>
    </g>
    <path d="M13.42,10.092L7.487,15.535L5.865,13.994C7.775,12.164 10.139,8.972 11.978,8.781L13.42,10.092Z" style="fill:white;"/>
    <g transform="matrix(1.58975,-0.054178,0.0482865,1.41687,-4.47606,-6.39314)">
        <path d="M6.309,15.455L6.719,15.897L5.882,15.897L5.882,14.986L6.309,15.455Z" style="fill:white;"/>
    </g>
</svg>
