<?xml version="1.0" encoding="UTF-8" standalone="no"?>
<!DOCTYPE svg PUBLIC "-//W3C//DTD SVG 1.1//EN" "http://www.w3.org/Graphics/SVG/1.1/DTD/svg11.dtd">
<svg width="100%" height="100%" viewBox="0 0 22 22" version="1.1" xmlns="http://www.w3.org/2000/svg" xmlns:xlink="http://www.w3.org/1999/xlink" xml:space="preserve" xmlns:serif="http://www.serif.com/" style="fill-rule:evenodd;clip-rule:evenodd;stroke-linecap:round;stroke-linejoin:round;stroke-miterlimit:1.5;">
    <g transform="matrix(4.65544,-0.149628,-0.155531,4.20596,-10.3157,-4.78119)">
        <path d="M6.404,3.832L6.71,3.696" style="fill:none;stroke:rgb(94,93,168);stroke-width:0.04px;"/>
    </g>
    <g transform="matrix(4.30321,0,0,4.13989,-8.52711,-5.54097)">
        <path d="M6.71,3.696L6.71,5.212" style="fill:none;stroke:rgb(94,93,168);stroke-width:0.04px;"/>
    </g>
    <g transform="matrix(4.30321,0,0,4.13989,-8.52711,-5.54097)">
        <path d="M6.374,3.845L6.374,5.212" style="fill:none;stroke:rgb(94,93,168);stroke-width:0.04px;"/>
    </g>
    <g transform="matrix(4.30321,0,0,4.13989,-8.52711,-5.54097)">
        <path d="M6.374,5.212C6.048,5.662 6.49,6.05 6.542,6.07C6.602,6.094 7.068,5.565 6.71,5.212" style="fill:none;stroke:rgb(94,93,168);stroke-width:0.04px;"/>
    </g>
    <g transform="matrix(4.30321,0,0,4.13989,-8.52711,-5.54097)">
        <path d="M2.213,3.141L4.538,1.92" style="fill:none;stroke:rgb(94,93,168);stroke-width:0.04px;"/>
    </g>
    <g transform="matrix(4.30321,0,0,4.13989,-8.52711,-5.54097)">
        <path d="M2.213,3.141L4.538,4.345" style="fill:none;stroke:rgb(94,93,168);stroke-width:0.04px;"/>
    </g>
    <g transform="matrix(4.30321,0,0,4.13989,-8.52711,-5.54097)">
        <path d="M4.538,4.345L6.862,3.141" style="fill:none;stroke:rgb(94,93,168);stroke-width:0.04px;"/>
    </g>
    <g transform="matrix(4.30321,0,0,4.13989,-8.52711,-5.54097)">
        <path d="M6.862,3.141L4.538,1.92" style="fill:none;stroke:rgb(94,93,168);stroke-width:0.04px;"/>
    </g>
    <g transform="matrix(4.30321,0,0,4.13989,-8.52711,-5.54097)">
        <path d="M3.178,4.089L3.178,4.866" style="fill:none;stroke:rgb(94,93,168);stroke-width:0.04px;"/>
    </g>
    <g transform="matrix(4.30321,0,0,4.13989,3.34737,-5.54097)">
        <path d="M3.178,4.089L3.178,4.866" style="fill:none;stroke:rgb(94,93,168);stroke-width:0.04px;"/>
    </g>
    <g transform="matrix(4.30321,0,0,4.13989,-8.52711,-5.54097)">
        <path d="M3.178,4.089L4.352,4.68" style="fill:none;stroke:rgb(94,93,168);stroke-width:0.04px;"/>
    </g>
    <g transform="matrix(4.30321,0,0,4.13989,-8.52711,-5.54097)">
        <path d="M4.352,4.68L4.702,4.68" style="fill:none;stroke:rgb(94,93,168);stroke-width:0.04px;"/>
    </g>
    <g transform="matrix(4.30321,0,0,4.13989,-8.52711,-5.54097)">
        <path d="M4.702,4.68L5.938,4.089" style="fill:none;stroke:rgb(94,93,168);stroke-width:0.04px;"/>
    </g>
    <g transform="matrix(4.30321,0,0,4.13989,-8.52711,-5.54097)">
        <path d="M3.178,4.866C4.098,5.79 5.018,5.787 5.938,4.866" style="fill:none;stroke:rgb(94,93,168);stroke-width:0.04px;"/>
    </g>
    <g transform="matrix(1.72875,0,0,1.27382,2.93136,11.6243)">
        <path d="M8.152,-0.121L8.152,2.34C6.96,3.9 5.866,4.47 4.667,4.571C3.568,4.663 2.356,3.661 1.283,2.34L1.288,-0.159L4.176,1.763L5.063,1.752L8.152,-0.121Z" style="fill:rgb(94,93,168);stroke:rgb(35,31,32);stroke-opacity:0;stroke-width:0.1px;"/>
    </g>
    <g transform="matrix(4.30321,0,0,4.13989,-8.52711,-5.54097)">
        <path d="M6.844,3.142L4.558,4.34L2.213,3.141L4.558,1.924L6.844,3.142Z" style="fill:rgb(94,93,168);stroke:rgb(94,93,168);stroke-opacity:0;stroke-width:0.04px;"/>
    </g>
    <g transform="matrix(4.30321,0,0,4.13989,9.89843,0.492723)">
        <path d="M2.427,2.261L2.454,3.755C2.666,4.106 2.518,4.415 2.263,4.613C2.009,4.388 1.861,4.03 2.109,3.755L2.086,2.402L2.427,2.261Z" style="fill:rgb(94,93,168);stroke:rgb(94,93,168);stroke-opacity:0;stroke-width:0.04px;"/>
    </g>
</svg>
